<svg id="callcenter" xmlns="http://www.w3.org/2000/svg" width="380" height="380" viewBox="0 0 380 380">
  <g id="组_451" data-name="组 451">
    <g id="组_452" data-name="组 452">
      <g id="路径_7930" data-name="路径 7930" fill="#fff">
        <path d="M 190.0000152587891 376 C 177.3775177001953 376 164.76416015625 374.7286071777344 152.5103149414062 372.2211303710938 C 140.5698699951172 369.7777099609375 128.8249206542969 366.1318664550781 117.6016616821289 361.3848571777344 C 106.5812683105469 356.7236022949219 95.95176696777344 350.9540710449219 86.00841522216797 344.2365112304688 C 76.15856170654297 337.5820617675781 66.89601898193359 329.9397277832031 58.47816467285156 321.5218505859375 C 50.06026458740234 313.1039733886719 42.41796493530273 303.8414611816406 35.76351547241211 293.9915771484375 C 29.04596519470215 284.0482788085938 23.27641487121582 273.4187622070312 18.61516571044922 262.3983764648438 C 13.86811542510986 251.1751098632812 10.22231483459473 239.4301147460938 7.778915405273438 227.4897155761719 C 5.271415233612061 215.2358703613281 4.000015258789062 202.6224670410156 4.000015258789062 190.0000152587891 C 4.000015258789062 177.3775177001953 5.271415233612061 164.76416015625 7.778915405273438 152.5103149414062 C 10.22231483459473 140.5698699951172 13.86811542510986 128.8249206542969 18.61516571044922 117.6016616821289 C 23.27641487121582 106.5812683105469 29.04596519470215 95.95176696777344 35.76351547241211 86.00841522216797 C 42.41796493530273 76.15856170654297 50.06026458740234 66.89601898193359 58.47816467285156 58.47816467285156 C 66.89601898193359 50.06026458740234 76.15856170654297 42.41796493530273 86.00841522216797 35.76351547241211 C 95.95176696777344 29.04596519470215 106.5812683105469 23.27641487121582 117.6016616821289 18.61516571044922 C 128.8249206542969 13.86811542510986 140.5698699951172 10.22231483459473 152.5103149414062 7.778915405273438 C 164.76416015625 5.271415233612061 177.3775177001953 4.000015258789062 190.0000152587891 4.000015258789062 C 202.6224670410156 4.000015258789062 215.2358703613281 5.271415233612061 227.4897155761719 7.778915405273438 C 239.4301147460938 10.22231483459473 251.1751098632812 13.86811542510986 262.3983764648438 18.61516571044922 C 273.4187622070312 23.27641487121582 284.0482788085938 29.04596519470215 293.9915771484375 35.76351547241211 C 303.8414611816406 42.41796493530273 313.1039733886719 50.06026458740234 321.5218505859375 58.47816467285156 C 329.9397277832031 66.89601898193359 337.5820617675781 76.15856170654297 344.2365112304688 86.00841522216797 C 350.9540710449219 95.95176696777344 356.7236022949219 106.5812683105469 361.3848571777344 117.6016616821289 C 366.1318664550781 128.8249206542969 369.7777099609375 140.5698699951172 372.2211303710938 152.5103149414062 C 374.7286071777344 164.76416015625 376 177.3775177001953 376 190.0000152587891 C 376 202.6224670410156 374.7286071777344 215.2358703613281 372.2211303710938 227.4897155761719 C 369.7777099609375 239.4301147460938 366.1319274902344 251.1751098632812 361.3848571777344 262.3983764648438 C 356.7236022949219 273.4187622070312 350.9540710449219 284.0482788085938 344.2365112304688 293.9915771484375 C 337.5820617675781 303.8414611816406 329.9397277832031 313.1039733886719 321.5218505859375 321.5218505859375 C 313.1039733886719 329.9397277832031 303.8414611816406 337.5820617675781 293.9915771484375 344.2365112304688 C 284.0482788085938 350.9540710449219 273.4187622070312 356.7236022949219 262.3983764648438 361.3848571777344 C 251.1751098632812 366.1319274902344 239.4301147460938 369.7777099609375 227.4897155761719 372.2211303710938 C 215.2358703613281 374.7286071777344 202.6224670410156 376 190.0000152587891 376 Z" stroke="none"/>
        <path d="M 190.0000152587891 8.000030517578125 C 89.64483642578125 8.000030517578125 8.000030517578125 89.64483642578125 8.000030517578125 190.0000152587891 C 8.000030517578125 290.3551635742188 89.64483642578125 372 190.0000152587891 372 C 290.3551635742188 372 372 290.3551635742188 372 190.0000152587891 C 372 89.64483642578125 290.3551635742188 8.000030517578125 190.0000152587891 8.000030517578125 M 190.0000152587891 3.0517578125e-05 C 294.93408203125 3.0517578125e-05 380 85.06591796875 380 190.0000152587891 C 380 294.93408203125 294.93408203125 380 190.0000152587891 380 C 85.06591796875 380 3.0517578125e-05 294.93408203125 3.0517578125e-05 190.0000152587891 C 3.0517578125e-05 85.06591796875 85.06591796875 3.0517578125e-05 190.0000152587891 3.0517578125e-05 Z" stroke="none" fill="#acf"/>
      </g>
      <g id="组_450" data-name="组 450" transform="translate(66.5 50.35)">
        <g id="组_449" data-name="组 449" transform="translate(0 0)">
          <g id="组_447" data-name="组 447">
            <path id="路径_7919" data-name="路径 7919" d="M-26.944,91.663h0c0,39.723-25.364,71.886-59.021,71.886s-59.021-32.193-59.021-71.886V52.945c44.876,0,83.227-19.816,83.227-44.235,0,24.45,12.377,44.235,34.815,44.235Z" transform="translate(209.373 35.556)" fill="none" stroke="#103772" stroke-miterlimit="10" stroke-width="9"/>
            <path id="路径_7920" data-name="路径 7920" d="M-102.913,23.22h12.5A16.342,16.342,0,0,1-74.073,39.561V62.181A16.342,16.342,0,0,1-90.413,78.522h-12.5a3.344,3.344,0,0,1-3.353-3.353V26.573A3.344,3.344,0,0,1-102.913,23.22Z" transform="translate(288.695 65.281)" fill="none" stroke="#103772" stroke-miterlimit="10" stroke-width="9"/>
            <path id="路径_7921" data-name="路径 7921" d="M-126.706,78.522h-12.5a16.342,16.342,0,0,1-16.341-16.341V39.561A16.342,16.342,0,0,1-139.205,23.22h12.5a3.344,3.344,0,0,1,3.353,3.353V75.168A3.344,3.344,0,0,1-126.706,78.522Z" transform="translate(187.739 65.281)" fill="none" stroke="#103772" stroke-miterlimit="10" stroke-width="9"/>
            <path id="路径_7922" data-name="路径 7922" d="M-118.5,57.846h0a5.447,5.447,0,0,1-5.366-5.518h0A5.447,5.447,0,0,1-118.5,46.81h0a5.447,5.447,0,0,1,5.366,5.518h0A5.447,5.447,0,0,1-118.5,57.846Z" transform="translate(252.639 113.608)" fill="none" stroke="#103772" stroke-miterlimit="10" stroke-width="9"/>
            <path id="路径_7923" data-name="路径 7923" d="M-77.422,39.55c0,15.274-16.828,27.651-37.559,27.651h-5.366" transform="translate(259.851 98.735)" fill="none" stroke="#103772" stroke-miterlimit="10" stroke-width="9"/>
            <path id="路径_7924" data-name="路径 7924" d="M-13.309,184.058v1.8c1.1,20.426,23.383,40.638,49.936,40.638S80.71,207.532,80.71,188.57c-9.877,0-24.694-4.725-24.694-28.444C56.047,51.077,36.292-5.81-42.7-5.81s-98.714,56.887-98.714,165.936c0,23.718-14.816,28.444-24.694,28.444,0,18.962,16.8,37.925,44.083,37.925s48.839-20.212,49.936-40.638v-1.8" transform="translate(166.106 5.81)" fill="none" stroke="#103772" stroke-miterlimit="10" stroke-width="9"/>
            <path id="路径_7925" data-name="路径 7925" d="M-138.606,64.54l39.571,51,39.6-51" transform="translate(222.444 149.93)" fill="none" stroke="#103772" stroke-miterlimit="10" stroke-width="9"/>
            <path id="路径_7926" data-name="路径 7926" d="M-80.738,117.76a107.214,107.214,0,0,0-11.8-48.9" transform="translate(316.823 158.78)" fill="none" stroke="#103772" stroke-miterlimit="10" stroke-width="9"/>
            <path id="路径_7927" data-name="路径 7927" d="M-150.778,68.87a106.735,106.735,0,0,0-11.8,48.9" transform="translate(173.338 158.801)" fill="none" stroke="#103772" stroke-miterlimit="10" stroke-width="9"/>
          </g>
          <g id="组_448" data-name="组 448" transform="translate(87.373 107.067)">
            <path id="路径_7928" data-name="路径 7928" d="M-130.952,29.31a6.586,6.586,0,0,0-6.494,6.707V49.431a6.625,6.625,0,0,0,6.494,6.707,6.606,6.606,0,0,0,6.494-6.707V36.017A6.625,6.625,0,0,0-130.952,29.31Z" transform="translate(137.446 -29.31)" fill="#00367c"/>
            <path id="路径_7929" data-name="路径 7929" d="M-111.572,29.31a6.586,6.586,0,0,0-6.494,6.707V49.431a6.625,6.625,0,0,0,6.494,6.707,6.606,6.606,0,0,0,6.494-6.707V36.017A6.625,6.625,0,0,0-111.572,29.31Z" transform="translate(177.148 -29.31)" fill="#00367c"/>
          </g>
        </g>
      </g>
    </g>
  </g>
</svg>
