<svg id="call_s" xmlns="http://www.w3.org/2000/svg" xmlns:xlink="http://www.w3.org/1999/xlink" width="44" height="44" viewBox="0 0 44 44">
  <defs>
    <clipPath id="clip-path">
      <rect id="矩形_8" data-name="矩形 8" width="44" height="44" fill="none"/>
    </clipPath>
  </defs>
  <g id="组_10" data-name="组 10">
    <g id="组_9" data-name="组 9" clip-path="url(#clip-path)">
      <path id="路径_1" data-name="路径 1" d="M44.451,22.226A22.226,22.226,0,1,1,22.226,0,22.226,22.226,0,0,1,44.451,22.226" transform="translate(0 0)" fill="#0dac50"/>
      <path id="路径_2" data-name="路径 2" d="M283.9,136.107a.479.479,0,0,1-.8-.223,12.344,12.344,0,0,0-9.1-9.126.479.479,0,0,1,.171-.942,13.352,13.352,0,0,1,9.86,9.836.479.479,0,0,1-.126.455" transform="translate(-250.042 -114.977)" fill="#fff"/>
      <path id="路径_3" data-name="路径 3" d="M275.08,172.082a.479.479,0,0,1-.8-.223,8.4,8.4,0,0,0-6.279-6.3.479.479,0,0,1,.172-.942,9.524,9.524,0,0,1,7.036,7.012.478.478,0,0,1-.126.455" transform="translate(-244.567 -150.436)" fill="#fff"/>
      <path id="路径_4" data-name="路径 4" d="M121.5,125.741a21.94,21.94,0,0,0,10.64,16.018,25.946,25.946,0,0,0,8.709,3.33,2.3,2.3,0,0,0,2.28-1.038,9.955,9.955,0,0,1,1.139-1.4,2.765,2.765,0,0,0-.841-4.385l-4.37-2.069a2.936,2.936,0,0,0-3.105.337,2.594,2.594,0,0,0-.933,1.553,18.009,18.009,0,0,1-6.7-6.489,2.725,2.725,0,0,0,1.443-.615,2.834,2.834,0,0,0,.684-3.425l-2.158-4.409a2.764,2.764,0,0,0-4.517-.659,4.383,4.383,0,0,1-1.1.892,2.3,2.3,0,0,0-1.166,2.356" transform="translate(-111.017 -111.133)" fill="#fff"/>
    </g>
  </g>
</svg>
