<svg id="gd2" xmlns="http://www.w3.org/2000/svg" width="109.094" height="104" viewBox="0 0 109.094 104">
  <path id="路径_7727" data-name="路径 7727" d="M11.954,0H92.046C98.648,0,104,1.923,104,4.3v104.8H0V4.3C0,1.923,5.352,0,11.954,0Z" transform="translate(0 104) rotate(-90)" fill="#c1e0ff"/>
  <g id="组_287" data-name="组 287" transform="translate(19.395 16)">
    <g id="组_55" data-name="组 55" transform="translate(0 4.192)">
      <path id="路径_23" data-name="路径 23" d="M321.631,45.652A35.152,35.152,0,1,1,356.781,10.5,35.2,35.2,0,0,1,321.631,45.652Zm0-65.273A30.121,30.121,0,1,0,351.75,10.5,30.156,30.156,0,0,0,321.631-19.621Z" transform="translate(-286.477 24.652)" fill="#5f93d6"/>
    </g>
    <text id="_" data-name="?" transform="translate(23.672 59)" fill="#f15a21" font-size="55" font-family="MicrosoftJhengHeiBold, Microsoft JhengHei" letter-spacing="0.08em"><tspan x="0" y="0">?</tspan></text>
  </g>
</svg>
