<svg id="greenphone" xmlns="http://www.w3.org/2000/svg" xmlns:xlink="http://www.w3.org/1999/xlink" width="165" height="165" viewBox="0 0 165 165">
  <defs>
    <clipPath id="clip-path">
      <rect id="矩形_8" data-name="矩形 8" width="165" height="165" fill="none"/>
    </clipPath>
  </defs>
  <g id="组_10" data-name="组 10">
    <g id="组_9" data-name="组 9" clip-path="url(#clip-path)">
      <path id="路径_1" data-name="路径 1" d="M165,82.5A82.5,82.5,0,1,1,82.5,0,82.5,82.5,0,0,1,165,82.5" transform="translate(0 0)" fill="#0dac50"/>
      <path id="路径_2" data-name="路径 2" d="M311.824,164.038a1.778,1.778,0,0,1-2.98-.827c-7.181-28.721-33.523-33.828-33.788-33.876a1.778,1.778,0,0,1,.636-3.5c.288.052,28.87,5.59,36.6,36.512a1.776,1.776,0,0,1-.468,1.69" transform="translate(-186.165 -85.604)" fill="#fff"/>
      <path id="路径_3" data-name="路径 3" d="M295.349,192.354a1.778,1.778,0,0,1-2.98-.827,31.2,31.2,0,0,0-23.308-23.394,1.777,1.777,0,0,1,.639-3.5c.205.037,20.607,3.99,26.117,26.028a1.776,1.776,0,0,1-.468,1.69" transform="translate(-182.089 -112.004)" fill="#fff"/>
      <path id="路径_4" data-name="路径 4" d="M121.569,136.967c3.818,25.6,17.474,46.157,39.494,59.459a96.31,96.31,0,0,0,32.327,12.361,8.543,8.543,0,0,0,8.462-3.852,36.957,36.957,0,0,1,4.229-5.189,10.262,10.262,0,0,0-3.121-16.279l-16.221-7.681a10.9,10.9,0,0,0-11.527,1.252,9.629,9.629,0,0,0-3.465,5.766,66.85,66.85,0,0,1-24.882-24.088,10.117,10.117,0,0,0,5.358-2.283,10.521,10.521,0,0,0,2.539-12.712l-8.011-16.366a10.261,10.261,0,0,0-16.767-2.446,16.268,16.268,0,0,1-4.087,3.312,8.546,8.546,0,0,0-4.328,8.744" transform="translate(-82.656 -82.742)" fill="#fff"/>
    </g>
  </g>
</svg>
