<svg xmlns="http://www.w3.org/2000/svg" width="68" height="61.265" viewBox="0 0 68 61.265">
  <g id="icon2" transform="translate(-9 -12.478)">
    <g id="组_48" data-name="组 48" transform="translate(9 12.478)">
      <path id="路径_18" data-name="路径 18" d="M-260.911,392.17a19.436,19.436,0,0,0-19.414,19.414A19.436,19.436,0,0,0-260.911,431,19.436,19.436,0,0,0-241.5,411.584,19.436,19.436,0,0,0-260.911,392.17Zm14.389,11.094h-6.9a20.689,20.689,0,0,0-3.036-7.7A16.684,16.684,0,0,1-246.521,403.264Zm-8.843,8.32a40.1,40.1,0,0,1-.374,5.547h-10.345a40.161,40.161,0,0,1-.374-5.547,40.168,40.168,0,0,1,.374-5.547h10.345A40.1,40.1,0,0,1-255.364,411.584Zm-5.547-15.948c1.565,0,3.545,2.78,4.667,7.627h-9.333C-264.456,398.417-262.476,395.637-260.911,395.637Zm-4.451-.071a20.687,20.687,0,0,0-3.036,7.7h-6.9A16.686,16.686,0,0,1-265.362,395.566Zm-12.189,16.018a16.528,16.528,0,0,1,.971-5.547h7.718a42.6,42.6,0,0,0-.368,5.547,42.6,42.6,0,0,0,.368,5.547h-7.718A16.525,16.525,0,0,1-277.551,411.584Zm2.251,8.32h6.9a20.687,20.687,0,0,0,3.036,7.7A16.689,16.689,0,0,1-275.3,419.9Zm14.389,7.627c-1.565,0-3.545-2.779-4.667-7.627h9.333C-257.365,424.752-259.346,427.532-260.911,427.532Zm4.452.071a20.688,20.688,0,0,0,3.036-7.7h6.9A16.687,16.687,0,0,1-256.459,427.6Zm3.5-10.472a42.614,42.614,0,0,0,.369-5.547,42.615,42.615,0,0,0-.369-5.547h7.718a16.528,16.528,0,0,1,.971,5.547,16.525,16.525,0,0,1-.971,5.547Z" transform="translate(280.325 -392.17)" fill="#003383"/>
      <path id="路径_19" data-name="路径 19" d="M-184.891,443.292l-10.951-3.651V429.547A5.552,5.552,0,0,0-201.389,424a5.552,5.552,0,0,0-5.547,5.547v20.227l-1.051-1.051a8.328,8.328,0,0,0-11.766,0l-.644.645a1.386,1.386,0,0,0-.007,1.954l15.155,15.356c.024.024.049.049.074.071a15.277,15.277,0,0,0,10.739,4.4c.353,0,.71-.012,1.066-.036A15.525,15.525,0,0,0-179.2,455.468v-4.283A8.307,8.307,0,0,0-184.891,443.292Zm2.916,12.176a12.74,12.74,0,0,1-11.586,12.876,12.507,12.507,0,0,1-9.717-3.622c-.019-.019-.038-.038-.058-.055l-14.113-14.3a5.555,5.555,0,0,1,7.5.316l3.419,3.418a1.382,1.382,0,0,0,1.511.3,1.386,1.386,0,0,0,.856-1.281V429.547a2.777,2.777,0,0,1,2.774-2.773,2.777,2.777,0,0,1,2.773,2.773v11.094a1.385,1.385,0,0,0,.948,1.315l11.9,3.967a5.541,5.541,0,0,1,3.793,5.263Z" transform="translate(247.201 -409.883)" fill="#003383"/>
    </g>
  </g>
</svg>
