<svg xmlns="http://www.w3.org/2000/svg" width="56.397" height="54.047" viewBox="0 0 56.397 54.047">
  <g id="icon1" transform="translate(-12.407 -15.353)">
    <path id="路径_16" data-name="路径 16" d="M89.347,147.974V132.7a4.7,4.7,0,1,0-9.4,0v.753A26.511,26.511,0,0,1,59.974,142.1h-9.4A10.587,10.587,0,0,0,40,152.674v4.7a10.587,10.587,0,0,0,9.4,10.505v.056c.073,0,.14-.011.214-.011a8.108,8.108,0,0,1,.939.062c.2-.013.389-.029.595-.029s.4.016.6.029v-.039H58.8v.038c.189-.013.375-.028.572-.028.1,0,.19.012.287.014s.2-.014.3-.014a8.85,8.85,0,0,1,1.19.088V168a26.49,26.49,0,0,1,18.8,8.6v.753a4.7,4.7,0,1,0,9.4,0V162.073a7.05,7.05,0,1,0,0-14.1ZM58.8,165.6H50.574a8.234,8.234,0,0,1-8.225-8.225v-4.7a8.234,8.234,0,0,1,8.225-8.225H58.8Zm21.149,7.609a28.884,28.884,0,0,0-18.8-7.562V144.4a28.885,28.885,0,0,0,18.8-7.562Zm7.05,4.14a2.35,2.35,0,1,1-4.7,0V132.7a2.35,2.35,0,1,1,4.7,0Zm2.35-17.624v-9.4a4.7,4.7,0,0,1,0,9.4Z" transform="translate(-27.593 -112.647)" fill="#003383"/>
  </g>
</svg>
