<svg xmlns="http://www.w3.org/2000/svg" width="54" height="63.003" viewBox="0 0 54 63.003">
  <path id="icon3" d="M181.192,180.3l-6.381-1.878a53.485,53.485,0,0,0,4.939-22.92v-6.75a24.75,24.75,0,1,0-49.5,0v6.75a53.485,53.485,0,0,0,4.939,22.92l-6.381,1.878a1.126,1.126,0,0,0,.317,2.205,1.151,1.151,0,0,0,.317-.046l18.331-5.392,6.291,9.437a1.125,1.125,0,0,0,1.872,0l6.291-9.437,18.33,5.392a1.159,1.159,0,0,0,.318.046,1.126,1.126,0,0,0,.317-2.205ZM155,126.25a22.509,22.509,0,0,1,22.446,21.441,7.848,7.848,0,0,0-5.571-2.315c-5.582,0-10.125-3.533-10.125-7.875a1.125,1.125,0,1,0-2.25,0c0,3.725-8.778,7.875-21.375,7.875a7.846,7.846,0,0,0-5.571,2.315A22.509,22.509,0,0,1,155,126.25Zm22.5,27a5.634,5.634,0,0,1-4.5,5.512V147.74A5.634,5.634,0,0,1,177.5,153.251ZM137,147.74v11.023a5.625,5.625,0,0,1,0-11.023Zm10.125,27.171-9.75,2.868a49.73,49.73,0,0,1-4.77-18.92,7.856,7.856,0,0,0,4.717,2.228,18.038,18.038,0,0,0,9.8,12.827Zm13.5.5L155,183.849l-5.625-8.438v-.572a17.8,17.8,0,0,0,11.25,0ZM155,173.5a15.768,15.768,0,0,1-15.75-15.751V147.6c9.82-.19,17.883-2.828,21.043-6.568,1.632,3.568,5.645,6.188,10.457,6.546v10.172c0,3.475-4.65,6.433-10.341,6.722a3.358,3.358,0,0,0-6.307-.035,6.879,6.879,0,0,1-3.945-1.871,1.125,1.125,0,0,0-1.564,1.618,9.129,9.129,0,0,0,5.474,2.519,3.353,3.353,0,0,0,6.36.017,16.669,16.669,0,0,0,9.1-2.9A15.771,15.771,0,0,1,155,173.5Zm3.375-7.875a1.125,1.125,0,1,1-1.125-1.125A1.127,1.127,0,0,1,158.375,165.627Zm4.5,9.284v-1a18.039,18.039,0,0,0,9.8-12.827,7.856,7.856,0,0,0,4.717-2.228,49.73,49.73,0,0,1-4.77,18.92Zm6.75,9.842h-6.75a1.125,1.125,0,0,0,0,2.25h6.75a1.125,1.125,0,0,0,0-2.25Zm-22.5-36A1.125,1.125,0,0,0,146,149.876v2.25a1.125,1.125,0,1,0,2.25,0v-2.25A1.125,1.125,0,0,0,147.125,148.751Zm15.75,4.5A1.125,1.125,0,0,0,164,152.126v-2.25a1.125,1.125,0,1,0-2.25,0v2.25A1.125,1.125,0,0,0,162.875,153.251Z" transform="translate(-128 -124)" fill="#003383"/>
</svg>
