<svg xmlns="http://www.w3.org/2000/svg" xmlns:xlink="http://www.w3.org/1999/xlink" width="27" height="39" viewBox="0 0 27 39">
  <defs>
    <clipPath id="clip-path">
      <rect id="矩形_73" data-name="矩形 73" width="27" height="15" transform="translate(729 1518.05)" fill="#fff" stroke="#707070" stroke-width="1"/>
    </clipPath>
  </defs>
  <g id="mic" transform="translate(-711 -1503)">
    <g id="组_549" data-name="组 549">
      <rect id="矩形_74" data-name="矩形 74" width="13" height="26" rx="6.5" transform="translate(718 1503)" fill="#4e5257"/>
      <g id="蒙版组_7" data-name="蒙版组 7" transform="translate(-18 1.95)" clip-path="url(#clip-path)">
        <g id="减去_2" data-name="减去 2" transform="translate(729 1483.05)" fill="#4e5257">
          <path d="M 13.5 49.50040054321289 C 10.02766036987305 49.50040054321289 6.763110160827637 48.14810180664062 4.30771017074585 45.69258880615234 C 1.852270007133484 43.23704147338867 0.5 39.97219848632812 0.5 36.4995002746582 L 0.5 13.5 C 0.5 10.02737045288086 1.852270007133484 6.762700080871582 4.307700157165527 4.307370185852051 C 6.763030052185059 1.852150321006775 10.02758979797363 0.5000002980232239 13.5 0.5000002980232239 C 16.97241020202637 0.5000002980232239 20.23697090148926 1.852150321006775 22.69230079650879 4.307370185852051 C 25.14772987365723 6.762700080871582 26.5 10.02737045288086 26.5 13.5 L 26.5 36.4995002746582 C 26.5 39.97219848632812 25.14772987365723 43.23704147338867 22.69228935241699 45.69258880615234 C 20.23689079284668 48.14810180664062 16.97233963012695 49.50040054321289 13.5 49.50040054321289 Z M 13.5 2.178400278091431 C 6.807139873504639 2.178400278091431 1.362100005149841 7.623440265655518 1.362100005149841 14.31630039215088 L 1.362100005149841 35.68320083618164 C 1.362100005149841 42.37606048583984 6.807139873504639 47.82110214233398 13.5 47.82110214233398 C 20.1928596496582 47.82110214233398 25.63789939880371 42.37606048583984 25.63789939880371 35.68320083618164 L 25.63789939880371 14.31630039215088 C 25.63789939880371 7.623440265655518 20.1928596496582 2.178400278091431 13.5 2.178400278091431 Z" stroke="none"/>
          <path d="M 13.5 49.00040054321289 C 16.83877944946289 49.00040054321289 19.97776985168457 47.70011138916016 22.33872985839844 45.33905029296875 C 24.29364585876465 43.38403701782227 25.52132797241211 40.89556884765625 25.88581466674805 38.20183563232422 C 24.71517944335938 43.96794128417969 19.60642242431641 48.32110214233398 13.5 48.32110214233398 C 7.393578052520752 48.32110214233398 2.284820318222046 43.96794128417969 1.114185214042664 38.20183563232422 C 1.478671193122864 40.89556884765625 2.706355094909668 43.38403701782227 4.661270141601562 45.33905029296875 C 7.02223014831543 47.70011138916016 10.16121959686279 49.00040054321289 13.5 49.00040054321289 M 25.88579940795898 11.7975902557373 C 25.52131843566895 9.103948593139648 24.29366683959961 6.615754127502441 22.33876037597656 4.660930156707764 C 19.97785949707031 2.300140380859375 16.83885955810547 1.000000238418579 13.5 1.000000238418579 C 10.16114044189453 1.000000238418579 7.022140026092529 2.300140380859375 4.661240100860596 4.660930156707764 C 2.70633339881897 6.615754127502441 1.478681564331055 9.103948593139648 1.114200472831726 11.7975902557373 C 2.284835577011108 6.031484603881836 7.393578052520752 1.678400278091431 13.5 1.678400278091431 C 19.60642242431641 1.678400278091431 24.71516418457031 6.031484603881836 25.88579940795898 11.7975902557373 M 13.5 50.00040054321289 C 9.894089698791504 50.00040054321289 6.503980159759521 48.5960807800293 3.954149961471558 46.04613876342773 C 1.404279947280884 43.49615097045898 -1.77635683940025e-15 40.10575866699219 -1.77635683940025e-15 36.4995002746582 L -1.77635683940025e-15 13.5 C -1.77635683940025e-15 9.893800735473633 1.404279947280884 6.503570079803467 3.954149961471558 3.953810214996338 C 6.503920078277588 1.404160261154175 9.89402961730957 2.716064386731887e-07 13.5 2.716064386731887e-07 C 17.10597038269043 2.716064386731887e-07 20.49608039855957 1.404160261154175 23.04585075378418 3.953810214996338 C 25.5957202911377 6.503570079803467 27 9.893800735473633 27 13.5 L 27 36.4995002746582 C 27 40.10575866699219 25.5957202911377 43.49615097045898 23.04585075378418 46.04613876342773 C 20.49601936340332 48.5960807800293 17.10590934753418 50.00040054321289 13.5 50.00040054321289 Z M 13.5 2.678400278091431 C 7.082839965820312 2.678400278091431 1.862100005149841 7.899140357971191 1.862100005149841 14.31630039215088 L 1.862100005149841 35.68320083618164 C 1.862100005149841 42.10036087036133 7.082839965820312 47.32110214233398 13.5 47.32110214233398 C 19.91716003417969 47.32110214233398 25.13789939880371 42.10036087036133 25.13789939880371 35.68320083618164 L 25.13789939880371 14.31630039215088 C 25.13789939880371 7.899140357971191 19.91716003417969 2.678400278091431 13.5 2.678400278091431 Z" stroke="none" fill="#4e5257"/>
        </g>
      </g>
      <g id="矩形_75" data-name="矩形 75" transform="translate(723 1533)" fill="#4e5257" stroke="#4e5257" stroke-width="1">
        <rect width="3" height="9" stroke="none"/>
        <rect x="0.5" y="0.5" width="2" height="8" fill="none"/>
      </g>
    </g>
  </g>
</svg>
