<svg xmlns="http://www.w3.org/2000/svg" width="133.729" height="63.903" viewBox="0 0 133.729 63.903">
  <defs>
    <filter id="矩形_66" x="-3.8" y="0" width="142" height="68" filterUnits="userSpaceOnUse">
      <feOffset dx="3" dy="3" input="SourceAlpha"/>
      <feGaussianBlur stdDeviation="2" result="blur"/>
      <feFlood flood-opacity="0.161"/>
      <feComposite operator="in" in2="blur"/>
      <feComposite in="SourceGraphic"/>
    </filter>
    <filter id="联合_3" x="0" y="0" width="133.729" height="63.903" filterUnits="userSpaceOnUse">
      <feOffset dx="3" dy="3" input="SourceAlpha"/>
      <feGaussianBlur stdDeviation="2" result="blur-2"/>
      <feFlood flood-opacity="0.161"/>
      <feComposite operator="in" in2="blur-2"/>
      <feComposite in="SourceGraphic"/>
    </filter>
  </defs>
  <g id="组_549" data-name="组 549" transform="translate(1788.2 2513)">
    <g transform="matrix(1, 0, 0, 1, -1788.2, -2513)" filter="url(#联合_3)">
      <path id="联合_3-2" data-name="联合 3" d="M901.084,34.224,850.94-8.536A8.485,8.485,0,0,1,847.8-15H969.529a8.485,8.485,0,0,1-3.14,6.465l-50.143,42.76a12.068,12.068,0,0,1-15.162,0Z" transform="translate(-844.8 18)" fill="#fff"/>
    </g>
    <g id="组_547" data-name="组 547" transform="translate(-1741.5 -2500.421)">
      <path id="路径_12" data-name="路径 12" d="M14.636,0,0,17.5,14.636,35" transform="translate(0 14.636) rotate(-90)" fill="none" stroke="#a1a1a1" stroke-linecap="round" stroke-linejoin="round" stroke-width="5"/>
      <path id="路径_13" data-name="路径 13" d="M14.636,0,0,17.5,14.636,35" transform="translate(0 29.421) rotate(-90)" fill="none" stroke="#a1a1a1" stroke-linecap="round" stroke-linejoin="round" stroke-width="5"/>
    </g>
  </g>
</svg>
