<svg id="redphone" xmlns="http://www.w3.org/2000/svg" xmlns:xlink="http://www.w3.org/1999/xlink" width="165" height="165" viewBox="0 0 165 165">
  <defs>
    <clipPath id="clip-path">
      <rect id="矩形_9" data-name="矩形 9" width="165" height="165" fill="none"/>
    </clipPath>
  </defs>
  <g id="组_12" data-name="组 12">
    <g id="组_11" data-name="组 11" clip-path="url(#clip-path)">
      <path id="路径_5" data-name="路径 5" d="M165,82.5A82.5,82.5,0,1,1,82.5,0,82.5,82.5,0,0,1,165,82.5" transform="translate(0 0)" fill="#f54038"/>
      <path id="路径_6" data-name="路径 6" d="M192.964,208.818c-20.956-15.517-45.333-20.435-70.5-14.224a97.048,97.048,0,0,0-31.837,14.224,8.607,8.607,0,0,0-3.284,8.773,37.186,37.186,0,0,1,.684,6.71,10.339,10.339,0,0,0,13.821,9.374l17.029-6.084a10.981,10.981,0,0,0,7.32-9.1,9.7,9.7,0,0,0-1.639-6.577,67.349,67.349,0,0,1,34.887-.565,10.189,10.189,0,0,0-2.191,5.443,10.6,10.6,0,0,0,7.248,10.865L181.87,233.6a10.339,10.339,0,0,0,13.689-10.2,16.387,16.387,0,0,1,.552-5.271,8.61,8.61,0,0,0-3.147-9.313" transform="translate(-59.296 -130.632)" fill="#fff"/>
    </g>
  </g>
</svg>
