<svg xmlns="http://www.w3.org/2000/svg" xmlns:xlink="http://www.w3.org/1999/xlink" width="165" height="165" viewBox="0 0 165 165">
  <defs>
    <clipPath id="clip-path">
      <rect id="矩形_8" data-name="矩形 8" width="165" height="165" fill="#a4a4a4"/>
    </clipPath>
  </defs>
  <g id="组_551" data-name="组 551" transform="translate(-1123 -952)">
    <g id="组件_2_22" data-name="组件 2 – 22" transform="translate(1123 952)">
      <g id="组_10" data-name="组 10">
        <g id="组_9" data-name="组 9" clip-path="url(#clip-path)">
          <path id="路径_1" data-name="路径 1" d="M165,82.5A82.5,82.5,0,1,1,82.5,0,82.5,82.5,0,0,1,165,82.5" transform="translate(0 0)" fill="#a4a4a4"/>
        </g>
      </g>
    </g>
    <path id="路径_7964" data-name="路径 7964" d="M71.619,22.483a37.371,37.371,0,0,0-19.36-5.975,35.855,35.855,0,0,0-20.845,5.975,42.626,42.626,0,0,0-6.368,5.2,35.912,35.912,0,0,0-4.669,46.181A41.825,41.825,0,0,0,25.6,80.239a35.708,35.708,0,0,0,15.877,9.3,36.514,36.514,0,0,0,18.583.111A40.272,40.272,0,0,0,76.45,81.442,32.44,32.44,0,0,0,85.96,67.785a31.386,31.386,0,0,0,1.4-5.275A32.683,32.683,0,0,0,87.88,56.8a7.034,7.034,0,0,1,14.059-.49c.006.163.006.327,0,.49A45.934,45.934,0,0,1,85.576,92.189,54.306,54.306,0,0,1,63.45,103.372a50.447,50.447,0,0,1-25.694-.213A49.9,49.9,0,0,1,15.562,90.209a56.3,56.3,0,0,1-6.914-8.417,49.988,49.988,0,0,1,6.436-64.021,56.057,56.057,0,0,1,8.468-6.906,49.835,49.835,0,0,1,28.98-8.408,51.651,51.651,0,0,1,27.743,8.895l-.4-3.508a7.054,7.054,0,1,1,14.016-1.6l2.254,19.437h0A7.034,7.034,0,0,1,90.4,33.367l-19.958,3.6a7.028,7.028,0,0,1-2.475-13.837h0Z" transform="translate(1153.919 981.898)" fill="#fff"/>
  </g>
</svg>
