<svg xmlns="http://www.w3.org/2000/svg" width="300" height="300" viewBox="0 0 226.208 442.639">
  <g id="sorry" transform="translate(-563.834 -261.213)">
    <g id="组_260" data-name="组 260" transform="translate(563.834 261.213)">
      <g id="组_171" data-name="组 171" transform="translate(0 0)">
        <path id="矩形_53" data-name="矩形 53" d="M19.565,0H423.073a19.565,19.565,0,0,1,19.565,19.565V206.643a19.566,19.566,0,0,1-19.566,19.566H19.566A19.566,19.566,0,0,1,0,206.643V19.565A19.565,19.565,0,0,1,19.565,0Z" transform="translate(226.208 0) rotate(90)" fill="#424347"/>
        <rect id="矩形_54" data-name="矩形 54" width="421.078" height="204.646" rx="15.565" transform="translate(215.427 10.78) rotate(90)" fill="#fff"/>
      </g>
      <circle id="椭圆_10" data-name="椭圆 10" cx="28.081" cy="28.081" r="28.081" transform="translate(84.35 336.808)" fill="#fb8aa8"/>
      <path id="路径_4123" data-name="路径 4123" d="M446.936,389.764s-4.323,1-4.762,8.519.315,12.907,3.134,18.545,8.082,10.524,11.715,11.025a5.086,5.086,0,0,0,4.528-2.005,2.9,2.9,0,0,0,.367-3.2,26.449,26.449,0,0,0-4.622-6.8,1.71,1.71,0,0,0-1.782-.353l-2.563.962s-4.385-3.134-4.574-13.6l1.881-.714a3.263,3.263,0,0,0,2.083-2.655c.318-2.571.472-7-1.709-9.349A3.8,3.8,0,0,0,446.936,389.764Z" transform="translate(-339.287 -43.798)" fill="#fff"/>
      <path id="路径_7695" data-name="路径 7695" d="M444.8,274.775H421.321a3.161,3.161,0,1,1,0-6.323H444.8a3.161,3.161,0,1,1,0,6.323Z" transform="translate(-379.795 -248.943)" fill="#a8a2de"/>
      <g id="组_259" data-name="组 259" transform="translate(156.567 19.509)">
        <path id="路径_7696" data-name="路径 7696" d="M462.019,271.613a3.16,3.16,0,1,1,3.159,3.161A3.16,3.16,0,0,1,462.019,271.613Z" transform="translate(-462.019 -268.452)" fill="#a8a2de"/>
        <circle id="椭圆_11" data-name="椭圆 11" cx="3.16" cy="3.16" r="3.16" transform="translate(11.304 0)" fill="#a8a2de"/>
        <path id="路径_7697" data-name="路径 7697" d="M470.408,271.613a3.161,3.161,0,1,1,3.161,3.161A3.161,3.161,0,0,1,470.408,271.613Z" transform="translate(-447.799 -268.452)" fill="#a8a2de"/>
      </g>
    </g>
    <g id="组_406" data-name="组 406" transform="translate(590.237 334.741)">
      <path id="路径_4120" data-name="路径 4120" d="M376.448,393.32c-31.163-13.256-35.314-38.781-32.384-60.858.2-1.481,1.183-41.7,67.318-54.461s98.342,15.933,105.891,37.819c10.63,30.84.158,86.079-83.46,86.554a191.26,191.26,0,0,1-36.212-2.866c-20.874,29.632-47.45,22.343-47.45,22.343C366.083,415.536,373.512,401.046,376.448,393.32Z" transform="translate(-343.281 -274.852)" fill="#19b0ff"/>
    </g>
    <text id="sorry_" data-name="sorry!" transform="translate(683.937 414.831)" fill="#fff" font-size="52" font-family="MicrosoftJhengHeiBold, Microsoft JhengHei" letter-spacing="0.025em"><tspan x="-79.409" y="0">sorry!</tspan></text>
  </g>
</svg>
