<svg xmlns="http://www.w3.org/2000/svg" xmlns:xlink="http://www.w3.org/1999/xlink" width="1110" height="120.903" viewBox="0 0 1110 120.903">
  <defs>
    <filter id="矩形_31" x="475" y="39" width="160" height="86" filterUnits="userSpaceOnUse">
      <feOffset dx="8" dy="8" input="SourceAlpha"/>
      <feGaussianBlur stdDeviation="5" result="blur"/>
      <feFlood flood-opacity="0.161"/>
      <feComposite operator="in" in2="blur"/>
      <feComposite in="SourceGraphic"/>
    </filter>
    <filter id="联合_2" x="0" y="0" width="1110" height="120.903" filterUnits="userSpaceOnUse">
      <feOffset dx="8" dy="8" input="SourceAlpha"/>
      <feGaussianBlur stdDeviation="5" result="blur-2"/>
      <feFlood flood-opacity="0.161"/>
      <feComposite operator="in" in2="blur-2"/>
      <feComposite in="SourceGraphic"/>
    </filter>
  </defs>
  <g id="topmenu" transform="translate(7 7)">
    <g transform="matrix(1, 0, 0, 1, -7, -7)" filter="url(#联合_2)">
      <path id="联合_2-2" data-name="联合 2" d="M901.084,34.224,850.94-8.536A9.035,9.035,0,0,1,848.391-12H369V-54H1449v42H968.937a9.035,9.035,0,0,1-2.549,3.464l-50.143,42.76a12.068,12.068,0,0,1-15.162,0Z" transform="translate(-362 61)" fill="#fff"/>
    </g>
    <g id="组_42" data-name="组 42" transform="translate(522.5 48.579)">
      <path id="路径_12" data-name="路径 12" d="M14.636,0,0,17.5,14.636,35" transform="translate(0 14.636) rotate(-90)" fill="none" stroke="#a1a1a1" stroke-linecap="round" stroke-linejoin="round" stroke-width="5"/>
      <path id="路径_13" data-name="路径 13" d="M14.636,0,0,17.5,14.636,35" transform="translate(0 29.421) rotate(-90)" fill="none" stroke="#a1a1a1" stroke-linecap="round" stroke-linejoin="round" stroke-width="5"/>
    </g>
  </g>
</svg>
